<svg height="3790" width="720" xmlns="http://www.w3.org/2000/svg">
<rect height="3790" fill="#555" width="720"></rect>
<text fill="#7f7" font-family="Courier New" font-size="12" xml:space="preserve">
<tspan x="10" y="26">└─┬ now@4.10.3 </tspan>
<tspan x="10" y="42">  ├── @google/maps@0.3.1 </tspan>
<tspan x="10" y="58">  ├── ansi-escapes@1.4.0 </tspan>
<tspan x="10" y="74">  ├── ansi-regex@2.1.1 </tspan>
<tspan x="10" y="90">  ├── arr-flatten@1.0.1 </tspan>
<tspan x="10" y="106">  ├── array-unique@0.3.2 </tspan>
<tspan x="10" y="122">  ├─┬ async-retry@0.3.0 </tspan>
<tspan x="10" y="138">  │ └── retry@0.10.1 </tspan>
<tspan x="10" y="154">  ├─┬ async-to-gen@1.3.2 </tspan>
<tspan x="10" y="170">  │ ├── babylon@6.16.1 </tspan>
<tspan x="10" y="186">  │ └─┬ magic-string@0.19.0 </tspan>
<tspan x="10" y="202">  │   └── vlq@0.2.1 </tspan>
<tspan x="10" y="218">  ├── bytes@2.5.0 </tspan>
<tspan x="10" y="234">  ├─┬ chalk@1.1.3 </tspan>
<tspan x="10" y="250">  │ ├── ansi-styles@2.2.1 </tspan>
<tspan x="10" y="266">  │ ├── escape-string-regexp@1.0.5 </tspan>
<tspan x="10" y="282">  │ ├── has-ansi@2.0.0 </tspan>
<tspan x="10" y="298">  │ └── supports-color@2.0.0 </tspan>
<tspan x="10" y="314">  ├─┬ copy-paste@1.3.0 </tspan>
<tspan x="10" y="330">  │ ├── iconv-lite@0.4.15 </tspan>
<tspan x="10" y="346">  │ └── sync-exec@0.6.2 </tspan>
<tspan x="10" y="362">  ├─┬ credit-card@3.0.1 </tspan>
<tspan x="10" y="378">  │ ├── lodash.merge@4.6.0 </tspan>
<tspan x="10" y="394">  │ └── reach@1.0.0 </tspan>
<tspan x="10" y="410">  ├─┬ cross-spawn@5.1.0 </tspan>
<tspan x="10" y="426">  │ ├─┬ lru-cache@4.0.2 </tspan>
<tspan x="10" y="442">  │ │ ├── pseudomap@1.0.2 </tspan>
<tspan x="10" y="458">  │ │ └── yallist@2.1.2 </tspan>
<tspan x="10" y="474">  │ ├─┬ shebang-command@1.2.0 </tspan>
<tspan x="10" y="490">  │ │ └── shebang-regex@1.0.0 </tspan>
<tspan x="10" y="506">  │ └─┬ which@1.2.14 </tspan>
<tspan x="10" y="522">  │   └── isexe@2.0.0 </tspan>
<tspan x="10" y="538">  ├── docker-file-parser@1.0.1 </tspan>
<tspan x="10" y="554">  ├── dotenv@4.0.0 </tspan>
<tspan x="10" y="570">  ├─┬ download@5.0.3 </tspan>
<tspan x="10" y="586">  │ ├─┬ caw@2.0.0 </tspan>
<tspan x="10" y="602">  │ │ ├─┬ get-proxy@1.1.0 </tspan>
<tspan x="10" y="618">  │ │ │ └─┬ rc@1.2.0 </tspan>
<tspan x="10" y="634">  │ │ │   ├── deep-extend@0.4.1 </tspan>
<tspan x="10" y="650">  │ │ │   └── strip-json-comments@2.0.1 </tspan>
<tspan x="10" y="666">  │ │ └── tunnel-agent@0.4.3 </tspan>
<tspan x="10" y="682">  │ ├─┬ decompress@4.0.0 </tspan>
<tspan x="10" y="698">  │ │ ├─┬ decompress-tar@4.1.0 </tspan>
<tspan x="10" y="714">  │ │ │ ├── file-type@3.9.0 </tspan>
<tspan x="10" y="730">  │ │ │ └─┬ tar-stream@1.5.2 </tspan>
<tspan x="10" y="746">  │ │ │   ├── bl@1.2.0 </tspan>
<tspan x="10" y="762">  │ │ │   ├── end-of-stream@1.4.0 </tspan>
<tspan x="10" y="778">  │ │ │   ├─┬ readable-stream@2.2.6 </tspan>
<tspan x="10" y="794">  │ │ │   │ ├── buffer-shims@1.0.0 </tspan>
<tspan x="10" y="810">  │ │ │   │ ├── core-util-is@1.0.2 </tspan>
<tspan x="10" y="826">  │ │ │   │ ├── isarray@1.0.0 </tspan>
<tspan x="10" y="842">  │ │ │   │ ├── process-nextick-args@1.0.7 </tspan>
<tspan x="10" y="858">  │ │ │   │ ├── string_decoder@0.10.31 </tspan>
<tspan x="10" y="874">  │ │ │   │ └── util-deprecate@1.0.2 </tspan>
<tspan x="10" y="890">  │ │ │   └── xtend@4.0.1 </tspan>
<tspan x="10" y="906">  │ │ ├─┬ decompress-tarbz2@4.1.0 </tspan>
<tspan x="10" y="922">  │ │ │ ├─┬ seek-bzip@1.0.5 </tspan>
<tspan x="10" y="938">  │ │ │ │ └─┬ commander@2.8.1 </tspan>
<tspan x="10" y="954">  │ │ │ │   └── graceful-readlink@1.0.1 </tspan>
<tspan x="10" y="970">  │ │ │ └─┬ unbzip2-stream@1.0.11 </tspan>
<tspan x="10" y="986">  │ │ │   └─┬ buffer@3.6.0 </tspan>
<tspan x="10" y="1002">  │ │ │     ├── base64-js@0.0.8 </tspan>
<tspan x="10" y="1018">  │ │ │     └── ieee754@1.1.8 </tspan>
<tspan x="10" y="1034">  │ │ ├── decompress-targz@4.0.0 </tspan>
<tspan x="10" y="1050">  │ │ ├─┬ decompress-unzip@4.0.1 </tspan>
<tspan x="10" y="1066">  │ │ │ ├── get-stream@2.3.1 </tspan>
<tspan x="10" y="1082">  │ │ │ └─┬ yauzl@2.7.0 </tspan>
<tspan x="10" y="1098">  │ │ │   ├── buffer-crc32@0.2.13 </tspan>
<tspan x="10" y="1114">  │ │ │   └─┬ fd-slicer@1.0.1 </tspan>
<tspan x="10" y="1130">  │ │ │     └── pend@1.2.0 </tspan>
<tspan x="10" y="1146">  │ │ └─┬ strip-dirs@1.1.1 </tspan>
<tspan x="10" y="1162">  │ │   ├── get-stdin@4.0.1 </tspan>
<tspan x="10" y="1178">  │ │   ├─┬ is-absolute@0.1.7 </tspan>
<tspan x="10" y="1194">  │ │   │ └── is-relative@0.1.3 </tspan>
<tspan x="10" y="1210">  │ │   ├── is-natural-number@2.1.1 </tspan>
<tspan x="10" y="1226">  │ │   └── sum-up@1.0.3 </tspan>
<tspan x="10" y="1242">  │ ├─┬ filenamify@2.0.0 </tspan>
<tspan x="10" y="1258">  │ │ ├── filename-reserved-regex@2.0.0 </tspan>
<tspan x="10" y="1274">  │ │ ├── strip-outer@1.0.0 </tspan>
<tspan x="10" y="1290">  │ │ └── trim-repeated@1.0.0 </tspan>
<tspan x="10" y="1306">  │ ├── get-stream@3.0.0 </tspan>
<tspan x="10" y="1322">  │ ├─┬ got@6.7.1 </tspan>
<tspan x="10" y="1338">  │ │ ├─┬ create-error-class@3.0.2 </tspan>
<tspan x="10" y="1354">  │ │ │ └── capture-stack-trace@1.0.0 </tspan>
<tspan x="10" y="1370">  │ │ ├── duplexer3@0.1.4 </tspan>
<tspan x="10" y="1386">  │ │ ├── is-redirect@1.0.0 </tspan>
<tspan x="10" y="1402">  │ │ ├── is-retry-allowed@1.1.0 </tspan>
<tspan x="10" y="1418">  │ │ ├── lowercase-keys@1.0.0 </tspan>
<tspan x="10" y="1434">  │ │ ├── safe-buffer@5.0.1 </tspan>
<tspan x="10" y="1450">  │ │ ├── timed-out@4.0.1 </tspan>
<tspan x="10" y="1466">  │ │ ├── unzip-response@2.0.1 </tspan>
<tspan x="10" y="1482">  │ │ └─┬ url-parse-lax@1.0.0 </tspan>
<tspan x="10" y="1498">  │ │   └── prepend-http@1.0.4 </tspan>
<tspan x="10" y="1514">  │ ├─┬ mkdirp@0.5.1 </tspan>
<tspan x="10" y="1530">  │ │ └── minimist@0.0.8 </tspan>
<tspan x="10" y="1546">  │ └── pify@2.3.0 </tspan>
<tspan x="10" y="1562">  ├── email-prompt@0.2.0 </tspan>
<tspan x="10" y="1578">  ├── email-validator@1.0.7 </tspan>
<tspan x="10" y="1594">  ├─┬ fs-promise@2.0.2 </tspan>
<tspan x="10" y="1610">  │ ├── any-promise@1.3.0 </tspan>
<tspan x="10" y="1626">  │ ├─┬ fs-extra@2.1.2 </tspan>
<tspan x="10" y="1642">  │ │ ├── graceful-fs@4.1.11 </tspan>
<tspan x="10" y="1658">  │ │ └── jsonfile@2.4.0 </tspan>
<tspan x="10" y="1674">  │ ├── mz@2.6.0 </tspan>
<tspan x="10" y="1690">  │ └─┬ thenify-all@1.6.0 </tspan>
<tspan x="10" y="1706">  │   └── thenify@3.2.1 </tspan>
<tspan x="10" y="1722">  ├─┬ glob@7.1.1 </tspan>
<tspan x="10" y="1738">  │ ├── fs.realpath@1.0.0 </tspan>
<tspan x="10" y="1754">  │ ├─┬ inflight@1.0.6 </tspan>
<tspan x="10" y="1770">  │ │ └── wrappy@1.0.2 </tspan>
<tspan x="10" y="1786">  │ ├── inherits@2.0.3 </tspan>
<tspan x="10" y="1802">  │ ├─┬ minimatch@3.0.3 </tspan>
<tspan x="10" y="1818">  │ │ └─┬ brace-expansion@1.1.6 </tspan>
<tspan x="10" y="1834">  │ │   ├── balanced-match@0.4.2 </tspan>
<tspan x="10" y="1850">  │ │   └── concat-map@0.0.1 </tspan>
<tspan x="10" y="1866">  │ ├── once@1.4.0 </tspan>
<tspan x="10" y="1882">  │ └── path-is-absolute@1.0.1 </tspan>
<tspan x="10" y="1898">  ├── ignore@3.2.6 </tspan>
<tspan x="10" y="1914">  ├── ini@1.3.4 </tspan>
<tspan x="10" y="1930">  ├─┬ inquirer@3.0.6 </tspan>
<tspan x="10" y="1946">  │ ├─┬ cli-cursor@2.1.0 </tspan>
<tspan x="10" y="1962">  │ │ └─┬ restore-cursor@2.0.0 </tspan>
<tspan x="10" y="1978">  │ │   ├─┬ onetime@2.0.1 </tspan>
<tspan x="10" y="1994">  │ │   │ └── mimic-fn@1.1.0 </tspan>
<tspan x="10" y="2010">  │ │   └── signal-exit@3.0.2 </tspan>
<tspan x="10" y="2026">  │ ├── cli-width@2.1.0 </tspan>
<tspan x="10" y="2042">  │ ├── external-editor@2.0.1 </tspan>
<tspan x="10" y="2058">  │ ├── figures@2.0.0 </tspan>
<tspan x="10" y="2074">  │ ├── lodash@4.17.4 </tspan>
<tspan x="10" y="2090">  │ ├── mute-stream@0.0.7 </tspan>
<tspan x="10" y="2106">  │ ├─┬ run-async@2.3.0 </tspan>
<tspan x="10" y="2122">  │ │ └── is-promise@2.1.0 </tspan>
<tspan x="10" y="2138">  │ ├── rx@4.1.0 </tspan>
<tspan x="10" y="2154">  │ ├─┬ string-width@2.0.0 </tspan>
<tspan x="10" y="2170">  │ │ └── is-fullwidth-code-point@2.0.0 </tspan>
<tspan x="10" y="2186">  │ └── through@2.3.8 </tspan>
<tspan x="10" y="2202">  ├── is-url@1.2.2 </tspan>
<tspan x="10" y="2218">  ├── minimist@1.2.0 </tspan>
<tspan x="10" y="2234">  ├── ms@1.0.0 </tspan>
<tspan x="10" y="2250">  ├─┬ node-fetch@1.6.3 </tspan>
<tspan x="10" y="2266">  │ ├── encoding@0.1.12 </tspan>
<tspan x="10" y="2282">  │ └── is-stream@1.1.0 </tspan>
<tspan x="10" y="2298">  ├── node-version@1.0.0 </tspan>
<tspan x="10" y="2314">  ├─┬ opn@4.0.2 </tspan>
<tspan x="10" y="2330">  │ ├── object-assign@4.1.1 </tspan>
<tspan x="10" y="2346">  │ └─┬ pinkie-promise@2.0.1 </tspan>
<tspan x="10" y="2362">  │   └── pinkie@2.0.4 </tspan>
<tspan x="10" y="2378">  ├─┬ ora@1.2.0 </tspan>
<tspan x="10" y="2394">  │ ├── cli-spinners@1.0.0 </tspan>
<tspan x="10" y="2410">  │ └── log-symbols@1.0.2 </tspan>
<tspan x="10" y="2426">  ├── progress@1.1.8 </tspan>
<tspan x="10" y="2442">  ├── psl@1.1.17 </tspan>
<tspan x="10" y="2458">  ├── resumer@0.0.0 </tspan>
<tspan x="10" y="2474">  ├─┬ socket.io-client@1.7.3 </tspan>
<tspan x="10" y="2490">  │ ├── backo2@1.0.2 </tspan>
<tspan x="10" y="2506">  │ ├── component-bind@1.0.0 </tspan>
<tspan x="10" y="2522">  │ ├── component-emitter@1.2.1 </tspan>
<tspan x="10" y="2538">  │ ├─┬ debug@2.3.3 </tspan>
<tspan x="10" y="2554">  │ │ └── ms@0.7.2 </tspan>
<tspan x="10" y="2570">  │ ├─┬ engine.io-client@1.8.3 </tspan>
<tspan x="10" y="2586">  │ │ ├── component-inherit@0.0.3 </tspan>
<tspan x="10" y="2602">  │ │ ├─┬ engine.io-parser@1.3.2 </tspan>
<tspan x="10" y="2618">  │ │ │ ├── after@0.8.2 </tspan>
<tspan x="10" y="2634">  │ │ │ ├── arraybuffer.slice@0.0.6 </tspan>
<tspan x="10" y="2650">  │ │ │ ├── base64-arraybuffer@0.1.5 </tspan>
<tspan x="10" y="2666">  │ │ │ ├── blob@0.0.4 </tspan>
<tspan x="10" y="2682">  │ │ │ └── wtf-8@1.0.0 </tspan>
<tspan x="10" y="2698">  │ │ ├── has-cors@1.1.0 </tspan>
<tspan x="10" y="2714">  │ │ ├── parsejson@0.0.3 </tspan>
<tspan x="10" y="2730">  │ │ ├── parseqs@0.0.5 </tspan>
<tspan x="10" y="2746">  │ │ ├─┬ ws@1.1.2 </tspan>
<tspan x="10" y="2762">  │ │ │ ├── options@0.0.6 </tspan>
<tspan x="10" y="2778">  │ │ │ └── ultron@1.0.2 </tspan>
<tspan x="10" y="2794">  │ │ ├── xmlhttprequest-ssl@1.5.3 </tspan>
<tspan x="10" y="2810">  │ │ └── yeast@0.1.2 </tspan>
<tspan x="10" y="2826">  │ ├─┬ has-binary@0.1.7 </tspan>
<tspan x="10" y="2842">  │ │ └── isarray@0.0.1 </tspan>
<tspan x="10" y="2858">  │ ├── indexof@0.0.1 </tspan>
<tspan x="10" y="2874">  │ ├── object-component@0.0.3 </tspan>
<tspan x="10" y="2890">  │ ├─┬ parseuri@0.0.5 </tspan>
<tspan x="10" y="2906">  │ │ └─┬ better-assert@1.0.2 </tspan>
<tspan x="10" y="2922">  │ │   └── callsite@1.0.0 </tspan>
<tspan x="10" y="2938">  │ ├─┬ socket.io-parser@2.3.1 </tspan>
<tspan x="10" y="2954">  │ │ ├── component-emitter@1.1.2 </tspan>
<tspan x="10" y="2970">  │ │ ├─┬ debug@2.2.0 </tspan>
<tspan x="10" y="2986">  │ │ │ └── ms@0.7.1 </tspan>
<tspan x="10" y="3002">  │ │ ├── isarray@0.0.1 </tspan>
<tspan x="10" y="3018">  │ │ └── json3@3.3.2 </tspan>
<tspan x="10" y="3034">  │ └── to-array@0.1.4 </tspan>
<tspan x="10" y="3050">  ├── split-array@1.0.1 </tspan>
<tspan x="10" y="3066">  ├── strip-ansi@3.0.1 </tspan>
<tspan x="10" y="3082">  ├─┬ stripe@4.16.1 </tspan>
<tspan x="10" y="3098">  │ ├── bluebird@2.11.0 </tspan>
<tspan x="10" y="3114">  │ ├── lodash.isplainobject@4.0.6 </tspan>
<tspan x="10" y="3130">  │ └── qs@6.0.4 </tspan>
<tspan x="10" y="3146">  ├── text-table@0.2.0 </tspan>
<tspan x="10" y="3162">  ├─┬ tmp-promise@1.0.3 </tspan>
<tspan x="10" y="3178">  │ ├── bluebird@3.5.0 </tspan>
<tspan x="10" y="3194">  │ └─┬ tmp@0.0.31 </tspan>
<tspan x="10" y="3210">  │   └── os-tmpdir@1.0.2 </tspan>
<tspan x="10" y="3226">  └─┬ update-notifier@2.1.0 </tspan>
<tspan x="10" y="3242">    ├─┬ boxen@1.0.0 </tspan>
<tspan x="10" y="3258">    │ ├─┬ ansi-align@1.1.0 </tspan>
<tspan x="10" y="3274">    │ │ └─┬ string-width@1.0.2 </tspan>
<tspan x="10" y="3290">    │ │   ├── code-point-at@1.1.0 </tspan>
<tspan x="10" y="3306">    │ │   └─┬ is-fullwidth-code-point@1.0.0 </tspan>
<tspan x="10" y="3322">    │ │     └── number-is-nan@1.0.1 </tspan>
<tspan x="10" y="3338">    │ ├── camelcase@4.1.0 </tspan>
<tspan x="10" y="3354">    │ ├── cli-boxes@1.0.0 </tspan>
<tspan x="10" y="3370">    │ ├─┬ term-size@0.1.1 </tspan>
<tspan x="10" y="3386">    │ │ └─┬ execa@0.4.0 </tspan>
<tspan x="10" y="3402">    │ │   ├── cross-spawn-async@2.2.5 </tspan>
<tspan x="10" y="3418">    │ │   ├── npm-run-path@1.0.0 </tspan>
<tspan x="10" y="3434">    │ │   ├── path-key@1.0.0 </tspan>
<tspan x="10" y="3450">    │ │   └── strip-eof@1.0.0 </tspan>
<tspan x="10" y="3466">    │ └─┬ widest-line@1.0.0 </tspan>
<tspan x="10" y="3482">    │   └─┬ string-width@1.0.2 </tspan>
<tspan x="10" y="3498">    │     └── is-fullwidth-code-point@1.0.0 </tspan>
<tspan x="10" y="3514">    ├─┬ configstore@3.0.0 </tspan>
<tspan x="10" y="3530">    │ ├─┬ dot-prop@4.1.1 </tspan>
<tspan x="10" y="3546">    │ │ └── is-obj@1.0.1 </tspan>
<tspan x="10" y="3562">    │ ├─┬ unique-string@1.0.0 </tspan>
<tspan x="10" y="3578">    │ │ └── crypto-random-string@1.0.0 </tspan>
<tspan x="10" y="3594">    │ └─┬ write-file-atomic@1.3.1 </tspan>
<tspan x="10" y="3610">    │   ├── imurmurhash@0.1.4 </tspan>
<tspan x="10" y="3626">    │   └── slide@1.1.6 </tspan>
<tspan x="10" y="3642">    ├── is-npm@1.0.0 </tspan>
<tspan x="10" y="3658">    ├─┬ latest-version@3.1.0 </tspan>
<tspan x="10" y="3674">    │ └─┬ package-json@4.0.0 </tspan>
<tspan x="10" y="3690">    │   ├── registry-auth-token@3.1.0 </tspan>
<tspan x="10" y="3706">    │   └── registry-url@3.1.0 </tspan>
<tspan x="10" y="3722">    ├── lazy-req@2.0.0 </tspan>
<tspan x="10" y="3738">    ├─┬ semver-diff@2.1.0 </tspan>
<tspan x="10" y="3754">    │ └── semver@5.3.0 </tspan>
<tspan x="10" y="3770">    └── xdg-basedir@3.0.0</tspan>
</text>
</svg>
